<svg width="396" height="48" viewBox="0 0 396 48" fill="none" xmlns="http://www.w3.org/2000/svg">
<mask id="mask0_100_14" style="mask-type:luminance" maskUnits="userSpaceOnUse" x="0" y="0" width="396" height="49">
<path d="M0 48.0019H396V0H0V48.0019Z" fill="white"/>
</mask>
<g mask="url(#mask0_100_14)">
<path d="M299.439 47.7769C299.295 47.5786 298.709 47.3386 297.697 47.0746C296.683 46.8048 295.154 46.2337 293.128 45.363C291.1 44.4937 289.246 43.4544 287.575 42.2482C285.904 41.0405 284.748 39.8715 284.091 38.7309C283.442 37.5888 283.148 36.3825 283.221 35.1107C283.292 33.8374 283.584 32.6013 284.091 31.3951C284.598 30.1888 284.202 28.9528 282.895 27.6795C281.588 26.4076 280.25 25.3326 278.873 24.4618C277.494 23.5911 273.906 23.0871 268.102 22.9559C262.298 22.8232 259.177 23.0215 258.743 23.5553C258.307 24.0891 257.658 24.6601 256.786 25.267C255.915 25.8664 254.425 26.7073 252.328 27.7749C251.274 28.3087 250.221 28.8499 249.175 29.3837C249.825 29.9175 250.483 30.4513 251.132 30.9925C252.438 32.0601 253.198 32.8727 253.419 33.4065C253.634 33.9402 253.746 34.6127 253.746 35.4178C253.746 36.2215 253.634 36.894 253.419 37.4277C253.198 37.963 252.803 38.5028 252.225 39.038C251.647 39.5718 250.846 40.04 249.833 40.4411C248.82 40.8437 247.798 41.0405 246.784 41.0405C245.77 41.0405 244.859 40.9391 244.068 40.7408C243.267 40.544 242.365 40.1712 241.344 39.6374C240.33 39.1036 239.491 38.4968 238.842 37.8303C238.191 37.1579 237.757 36.5868 237.534 36.1201C237.321 35.6519 237.242 35.0153 237.321 34.2101C237.392 33.4065 237.795 32.6013 238.517 31.7976C239.245 30.9925 239.933 30.4229 240.584 30.086C241.233 29.749 241.525 29.5149 241.454 29.3837C241.383 29.2525 240.401 28.8797 238.517 28.2788C236.631 27.6795 234.09 27.007 230.898 26.2689C227.706 25.5294 223.208 24.7257 217.404 23.855C211.599 22.9842 204.163 22.1433 195.096 21.3471C186.028 20.5419 180.912 20.7104 179.756 21.8511C178.592 22.9917 177.032 24.0593 175.077 25.0687C173.12 26.0706 170.832 27.0443 168.218 27.9866C165.604 28.923 162.921 29.7639 160.165 30.5034C157.409 31.2415 155.991 31.6724 155.92 31.8126C155.849 31.9438 155.92 32.0824 156.133 32.2136C156.348 32.3463 156.681 32.9159 157.115 33.9179C157.551 34.9198 157.733 35.8637 157.662 36.7344C157.591 37.6037 157.267 38.4088 156.681 39.1469C156.101 39.8864 155.373 40.4202 154.503 40.7557C153.631 41.0927 152.76 41.2612 151.889 41.2612C151.018 41.2612 150.114 41.1285 149.165 40.8586C148.222 40.5872 147.462 40.2875 146.884 39.952C146.306 39.6151 145.719 39.1111 145.141 38.4446C144.563 37.7722 144.231 37.1355 144.16 36.5361C144.089 35.9367 144.231 35.227 144.596 34.4233C144.959 33.6182 145.831 32.813 147.208 32.0094C148.587 31.2042 149.275 30.7375 149.275 30.6048C149.275 30.4736 149.062 30.3051 148.626 30.1009C148.191 29.9026 146.812 29.4284 144.492 28.6963C142.172 27.9583 139.708 27.3574 137.096 26.8907C134.482 26.4225 130.055 25.9543 123.823 25.4862C120.704 25.2521 117.583 25.018 114.463 24.7839C115.009 25.2521 115.548 25.7203 116.094 26.1884C117.179 27.1248 118.272 27.5915 119.357 27.5915C120.442 27.5915 122.113 27.76 124.362 28.0969C126.611 28.4324 128.203 28.835 129.153 29.3032C130.095 29.7714 131.402 31.5114 133.073 34.5247C134.744 37.5381 136.123 40.3173 137.206 42.8625C138.291 45.4077 138.767 46.7451 138.624 46.8838C138.552 46.9509 138.481 47.0165 138.41 47.0821C138.046 46.6139 137.682 46.1457 137.325 45.6776C136.597 44.7412 135.188 42.196 133.081 38.042C130.974 33.8896 129.597 31.5114 128.948 30.9045C128.297 30.3051 126.484 29.8012 123.507 29.3986C122.018 29.1943 120.529 28.996 119.049 28.7918C120.03 29.8668 121.004 30.9343 121.986 32.0094C123.942 34.152 125.137 35.725 125.573 36.7344C125.788 37.2384 126.009 37.7349 126.222 38.2403C125.827 37.9407 125.423 37.641 125.027 37.3338C124.227 36.7344 122.596 35.1539 120.134 32.6088C117.67 30.0636 116.323 28.8201 116.11 28.8931C115.896 28.9602 115.745 29.2301 115.674 29.6983C115.603 30.1665 115.857 31.1386 116.435 32.6088C117.013 34.0789 117.631 35.388 118.28 36.5287C118.929 37.6693 119.698 38.6056 120.568 39.3452C121.44 40.0832 122.888 40.954 124.924 41.956C126.952 42.9579 129.057 43.7989 131.235 44.4639C133.413 45.1289 134.61 45.6045 134.823 45.8684C134.934 45.9996 135.044 46.1383 135.147 46.2695C134.531 46.2039 133.912 46.1383 133.294 46.0727C132.059 45.9415 130.578 45.6343 128.836 45.1661C127.094 44.698 125.169 43.9226 123.071 42.8551C120.965 41.78 119.444 40.7408 118.501 39.7388C117.559 38.7369 116.83 37.6618 116.323 36.5212C115.816 35.3806 115.342 33.976 114.906 32.3016C114.471 30.6272 114.257 29.5224 114.257 28.9886C114.257 28.4548 114.399 28.082 114.693 27.8852C114.835 27.7823 114.985 27.6869 115.129 27.5855C114.439 27.0502 113.75 26.509 113.062 25.9752C111.683 24.9002 108.238 24.1994 102.727 23.8699C97.2152 23.5329 94.1347 23.7387 93.4775 24.4693C92.8204 25.2073 92.0277 25.8738 91.0848 26.4807C90.1435 27.0801 88.6226 27.7898 86.5156 28.586C84.4102 29.3911 81.7253 30.0934 78.4623 30.7003C75.1993 31.2996 71.6844 31.7678 67.9063 32.1048C66.0222 32.2733 64.1364 32.4403 62.2522 32.6088C62.3636 32.8429 62.4653 33.0769 62.5767 33.311C62.7898 33.7792 62.8302 34.5471 62.6881 35.6221C62.5444 36.6971 62.1812 37.465 61.6032 37.9332C61.0252 38.4014 60.1533 38.7011 58.9892 38.8397C57.8251 38.9709 56.8515 38.9426 56.0507 38.7369C55.2515 38.5326 54.349 38.1673 53.3351 37.6335C52.3211 37.0997 51.6317 36.6599 51.2684 36.3244C50.9036 35.9874 50.6194 35.5565 50.3966 35.0153C50.1754 34.474 50.1431 33.976 50.2868 33.5078C50.4289 33.0412 50.7211 32.6386 51.157 32.3016C51.593 31.9661 52.7167 31.5993 54.5314 31.1983C56.3446 30.7957 57.2552 30.5243 57.2552 30.3931C57.2552 30.2619 56.3833 29.7207 54.6412 28.7843C52.8991 27.8479 50.437 26.7729 47.245 25.5667C44.053 24.3589 40.4978 23.2556 36.5777 22.2536C32.6576 21.2517 29.0313 20.5121 25.6972 20.0454C22.3632 19.5772 18.9501 19.3059 15.4659 19.2403C11.9817 19.1747 9.12231 19.3059 6.87324 19.6429C4.62418 19.9783 3.06453 20.3809 2.19267 20.8491C1.32243 21.3173 0.744424 21.5514 0.450576 21.5514C0.308496 21.5514 0.158343 21.5514 0.0146484 21.5514C0.0146484 21.4201 0.0146484 21.2815 0.0146484 21.1488C0.0146484 20.8789 0.592656 20.4107 1.75836 19.7442C2.92245 19.0718 4.62418 18.5097 6.87324 18.034C9.12231 17.5659 11.7363 17.2945 14.7054 17.2289C17.6826 17.1633 20.5097 17.2289 23.1947 17.4272C25.8797 17.624 27.3279 17.5286 27.5507 17.1275C27.7639 16.7249 27.5507 15.3502 26.9001 13.0093C26.251 10.6624 25.9184 9.05363 25.9184 8.18287C25.9184 7.31211 25.9895 6.74255 26.1332 6.47118C26.2753 6.20131 26.6079 5.79873 27.1148 5.26495C27.6218 4.73116 28.3822 4.12431 29.4026 3.45783C30.4166 2.78538 31.6129 2.14871 32.9902 1.54932C34.369 0.949932 35.5331 0.547356 36.4743 0.343086C36.9506 0.240208 37.4172 0.138817 37.8919 0.0433922C37.7821 0.174603 37.6788 0.313267 37.5674 0.445969C37.3543 0.715843 36.0788 1.48372 33.7587 2.75556C31.4386 4.02889 29.8079 5.06664 28.865 5.87179C27.9221 6.67545 27.4474 7.81757 27.4474 9.28772C27.4474 10.7564 27.6605 12.2996 28.0965 13.9084C28.3112 14.7135 28.5324 15.5172 28.7455 16.3224C29.1814 15.8184 29.6174 15.3204 30.0533 14.8164C30.9235 13.8145 31.9052 12.1684 32.9902 9.89456C34.0751 7.61927 34.7323 6.44285 34.947 6.37576C35.0584 6.34743 35.1601 6.31015 35.2715 6.27436C35.1601 6.77833 35.0584 7.27633 34.947 7.7803C34.7323 8.78226 34.2979 10.0258 33.6408 11.4959C32.9902 12.9735 32.333 14.1425 31.684 15.0132C31.0349 15.884 30.3455 16.622 29.6174 17.2214C29.2525 17.5211 28.8892 17.8223 28.5324 18.1295C30.021 18.4292 31.5096 18.7289 32.9902 19.036C35.969 19.6354 38.7961 20.3451 41.4794 21.1413C44.1644 21.9465 46.8091 22.8828 49.423 23.9579C52.037 25.0329 53.9534 25.9022 55.1886 26.5686C56.4237 27.2411 57.5474 27.9717 58.5614 28.7768C59.5753 29.582 61.7533 29.8519 65.0873 29.582C68.4214 29.3106 71.8652 28.8797 75.4221 28.2729C78.9773 27.672 81.764 27.0368 83.7999 26.3629C85.8359 25.6904 87.3875 25.0538 88.4805 24.4544C89.5655 23.855 90.2226 23.4166 90.4357 23.1453C90.5471 23.014 90.6585 22.8754 90.7603 22.7427C89.7076 22.5101 88.6549 22.276 87.6006 22.0419C85.4952 21.5737 83.7208 20.8998 82.271 20.0305C80.8227 19.1598 79.9509 18.4873 79.6586 18.0191C79.3648 17.551 79.2227 16.9799 79.2227 16.3074C79.2227 15.635 79.4358 15.0714 79.8718 14.5957C80.3077 14.1291 80.8147 13.7921 81.3927 13.5938C81.9707 13.397 82.9523 13.2941 84.3311 13.2941C85.7083 13.2941 87.3084 13.5655 89.1215 14.0992C90.9346 14.633 92.3522 15.3055 93.3661 16.1106C94.3801 16.9143 94.9985 17.551 95.2196 18.0191C95.4408 18.4873 95.5442 19.0211 95.5442 19.6279C95.5442 20.2348 100.296 20.8342 109.799 21.4351C119.302 22.0344 125.573 22.5101 128.623 22.8381C131.671 23.1751 134.894 23.6716 138.307 24.3455C141.72 25.018 144.397 25.683 146.362 26.3554C148.317 27.0294 149.948 27.6944 151.256 28.3668C152.562 29.0408 155.864 28.4995 161.155 26.758C166.452 25.018 169.857 23.8117 171.386 23.1378C172.907 22.4654 174.252 21.7348 175.409 20.9296C176.573 20.1259 177.111 19.6578 177.04 19.5251C176.969 19.3939 176.168 19.1598 174.649 18.8228C173.128 18.4873 171.751 17.9535 170.514 17.214C169.279 16.4759 168.589 15.7379 168.447 15.0058C168.305 14.2677 168.409 13.6311 168.772 13.0973C169.137 12.5635 169.603 12.1609 170.19 11.891C170.768 11.6197 171.678 11.4229 172.907 11.2902C174.142 11.1589 175.551 11.3274 177.151 11.7956C178.75 12.2638 179.946 12.8632 180.745 13.6012C181.546 14.3408 182.053 15.1444 182.266 16.0152C182.481 16.886 182.662 17.3541 182.814 17.4197C182.956 17.4853 185.205 17.6896 189.561 18.0191C193.915 18.3561 196.671 18.3188 197.827 17.9163C198.991 17.5152 199.681 16.3074 199.894 14.2961C200.109 12.2862 200.401 10.983 200.766 10.3762C201.131 9.77677 201.676 9.14011 202.396 8.46766C203.126 7.79521 204.321 7.06311 205.984 6.25946C207.647 5.4543 209.247 4.95034 210.776 4.75203C212.295 4.55522 213.571 4.55522 214.585 4.75203C215.599 4.95034 216.58 5.28731 217.523 5.754C218.464 6.22218 219.701 6.69036 221.221 7.15854C222.741 7.62672 223.541 8.0293 223.613 8.36627C223.684 8.70175 223.652 8.96566 223.502 9.16993C223.36 9.36674 222.883 9.76932 222.084 10.3762C221.283 10.983 220.271 12.0148 219.036 13.4924C217.799 14.9625 216.676 16.0003 215.662 16.6071C214.648 17.2065 213.048 17.7478 210.878 18.2159C208.701 18.6841 206.633 18.8168 204.678 18.6185C202.721 18.4217 201.486 18.4217 200.979 18.6185C200.725 18.7214 200.472 18.8168 200.22 18.9182C202.072 19.0867 203.917 19.2552 205.771 19.4237C209.468 19.7592 213.928 20.3302 219.154 21.1339C224.38 21.939 228.728 22.7427 232.212 23.5478C235.697 24.353 238.809 25.2222 241.573 26.1586C244.33 27.095 246.759 27.0294 248.866 25.9543C250.973 24.8793 252.454 24.0086 253.326 23.3436C253.76 23.0066 254.196 22.6696 254.632 22.3416C253.76 22.2089 252.89 22.0702 252.018 21.939C250.276 21.6677 248.645 21.2368 247.124 20.6299C245.603 20.0305 244.551 19.3208 243.973 18.5231C243.395 17.7194 243.141 16.9799 243.212 16.3149C243.283 15.6424 243.537 15.0788 243.973 14.6032C244.409 14.135 244.916 13.7697 245.494 13.4999C246.072 13.2285 247.345 13.06 249.302 12.9944C251.258 12.9288 252.969 13.0973 254.417 13.4999C255.867 13.9009 256.992 14.3333 257.792 14.809C258.591 15.2771 259.241 15.8109 259.747 16.4178C260.254 17.0172 260.578 17.7552 260.73 18.626C260.872 19.4967 261.093 19.9649 261.379 20.0305C261.671 20.0961 265.656 20.1617 273.345 20.2273C281.035 20.2929 287.163 20.527 291.733 20.9296C296.302 21.3322 299.93 21.7705 302.615 22.2387C305.298 22.7069 307.801 23.2407 310.121 23.8475C312.441 24.4469 315.562 25.4862 319.482 26.9638C323.402 28.4324 326.775 28.4041 329.602 26.8609C332.429 25.3177 334.718 23.8117 336.46 22.3416C337.332 21.6021 338.203 20.864 339.074 20.1319C337.767 20.1692 336.46 20.199 335.154 20.2348C332.54 20.3004 330.616 20.2348 329.389 20.038C328.154 19.8322 326.886 19.4669 325.58 18.9331C324.272 18.3993 323.299 17.7627 322.642 17.0246C321.992 16.2851 321.66 15.6499 321.66 15.1161C321.66 14.5823 321.842 14.0411 322.206 13.5073C322.57 12.9735 323.077 12.5337 323.726 12.1982C324.384 11.8612 325.357 11.5615 326.665 11.2902C327.971 11.0203 329.168 10.8891 330.252 10.8891C331.337 10.8891 332.644 11.0203 334.171 11.2902C335.692 11.5615 337.18 12.0297 338.63 12.6947C340.08 13.3671 341.093 13.968 341.679 14.5018C342.257 15.0356 342.662 15.5396 342.875 16.0077C343.088 16.4759 344.222 16.6444 346.248 16.5132C348.284 16.3805 350.819 16.3805 353.867 16.5132C356.915 16.6444 359.886 15.9779 362.792 14.5018C365.69 13.0242 367.686 11.8538 368.779 10.983C369.864 10.1137 371.028 9.41147 372.263 8.87023C373.498 8.33645 374.33 8.03675 374.766 7.96369C374.979 7.92641 375.201 7.89809 375.415 7.86081C375.415 7.96369 375.415 8.05762 375.415 8.16051C375.415 8.35881 374.94 8.73157 373.997 9.26535C373.054 9.79914 371.716 10.7713 369.974 12.1758C369.103 12.8781 368.231 13.5804 367.361 14.2886C368.01 14.2528 368.667 14.223 369.316 14.1872C370.624 14.1216 371.859 13.8875 373.015 13.4849C374.179 13.0824 375.05 12.6142 375.629 12.0804C376.207 11.5466 376.895 10.5372 377.696 9.06705C378.495 7.5969 379.185 6.58897 379.763 6.05519C380.341 5.5214 381.14 5.14716 382.154 4.95034C382.661 4.84746 383.168 4.75203 383.675 4.65065C383.675 4.78186 383.675 4.92052 383.675 5.05322C383.675 5.32309 383.279 5.754 382.478 6.36234C381.679 6.96918 380.848 8.03675 379.976 9.57996C379.105 11.1232 378.274 12.2563 377.473 12.9944C376.674 13.7339 375.518 14.3333 373.989 14.8015C372.468 15.2697 370.616 15.474 368.438 15.4009C366.26 15.3353 364.557 15.635 363.322 16.3074C362.705 16.6444 362.086 16.9799 361.47 17.3094C363.536 17.712 365.603 18.1146 367.67 18.5156C371.803 19.3208 375.319 20.2929 378.225 21.4276C381.124 22.5682 383.342 23.6358 384.863 24.6452C386.382 25.6472 388.165 27.0577 390.193 28.8648C392.227 30.6704 393.707 32.1779 394.65 33.3841C395.593 34.5903 396.027 35.2926 395.956 35.4984C395.918 35.5997 395.885 35.6952 395.847 35.7981C395.449 35.6296 395.046 35.4611 394.65 35.2926C393.851 34.9571 392.148 33.8225 389.534 31.8782C386.921 29.9324 384.458 28.2938 382.138 26.9563C379.817 25.6174 377.386 24.5125 374.845 23.6433C372.302 22.7725 368.675 21.9017 363.964 21.0325C359.251 20.1617 354.643 19.7234 350.145 19.7234C345.647 19.7234 343.104 20.2273 342.526 21.2293C341.948 22.2313 341.078 23.2407 339.914 24.2426C338.756 25.2446 337.046 26.4225 334.797 27.76C332.548 29.0989 330.918 29.9697 329.904 30.3707C329.397 30.569 328.89 30.7733 328.383 30.9701C328.819 31.3727 329.255 31.7753 329.689 32.1779C330.561 32.9815 331.107 33.6182 331.321 34.0864C331.534 34.5545 331.646 35.0227 331.646 35.4909C331.646 35.9591 331.534 36.3974 331.321 36.8C331.107 37.2011 330.561 37.6037 329.689 38.0063C328.819 38.4088 327.876 38.6056 326.862 38.6056C325.848 38.6056 324.724 38.4014 323.489 38.0063C322.254 37.6037 321.382 37.0997 320.875 36.5003C320.368 35.8994 320.076 35.3299 320.005 34.7886C319.934 34.2549 320.005 33.7136 320.218 33.1798C320.433 32.646 320.765 32.1406 321.2 31.6724C321.414 31.4383 321.636 31.2042 321.849 30.9701C320.725 30.5318 319.601 30.1009 318.476 29.6625C316.227 28.7918 312.489 27.7525 307.271 26.5463C302.043 25.34 297.697 24.5349 294.211 24.1323C290.727 23.7312 287.758 23.4971 285.287 23.4315C284.052 23.3943 282.824 23.3644 281.588 23.3287C282.349 24.0011 283.109 24.6661 283.878 25.34C285.397 26.6775 286.419 27.6869 286.926 28.3534C287.433 29.0258 288.557 29.494 290.299 29.7564C292.043 30.0278 293.308 30.3558 294.109 30.7584C294.908 31.161 295.598 31.6292 296.176 32.1629C296.754 32.6967 297.261 33.3036 297.697 33.9686C298.131 34.6425 298.496 35.4104 298.782 36.2797C299.074 37.1504 299.327 39.0589 299.541 42.0067C299.755 44.9544 299.905 46.5259 299.977 46.7302C300.048 46.9285 300.301 47.1328 300.737 47.3311C300.952 47.4325 301.173 47.5279 301.394 47.6308C301.102 47.6964 300.816 47.762 300.524 47.8276C299.946 48.011 299.581 47.9737 299.439 47.7769ZM297.482 45.4658C297.34 44.1269 297.19 42.7895 297.046 41.4431C296.754 38.7667 296.389 36.9536 295.961 36.0172C295.527 35.0809 294.878 34.2399 294.006 33.5078C293.134 32.7698 292.081 32.1987 290.854 31.7976C290.236 31.5919 289.619 31.3951 289.001 31.1983C289.366 31.8707 289.729 32.5357 290.086 33.2082C290.814 34.5471 291.211 35.5848 291.282 36.3244C291.321 36.6897 291.353 37.0624 291.392 37.4277C291.321 37.4277 291.25 37.4277 291.179 37.4277C291.037 37.4277 290.094 36.3244 288.352 34.1162C287.48 33.0113 286.61 31.9065 285.738 30.8031C285.596 31.2713 285.446 31.738 285.303 32.2062C285.01 33.1425 284.868 34.0133 284.868 34.817C284.868 35.6221 285.05 36.39 285.413 37.128C285.778 37.8676 286.831 38.9053 288.565 40.2443C290.307 41.5817 292.223 42.7895 294.33 43.8645C295.377 44.3908 296.429 44.932 297.482 45.4658ZM152.333 38.5326C153.203 38.467 153.854 38.1673 154.288 37.626C154.724 37.0848 154.906 36.5212 154.835 35.9144C154.764 35.315 154.438 34.6425 153.854 33.903C153.274 33.1649 152.333 32.9964 151.025 33.399C149.719 33.8016 148.745 34.2698 148.088 34.8035C147.439 35.3373 147.106 35.7384 147.106 36.0098C147.106 36.2797 147.248 36.5808 147.541 36.9163C147.835 37.2533 148.484 37.6186 149.497 38.0212C150.519 38.4297 151.461 38.5982 152.333 38.5326ZM247.211 38.2329C248.518 38.1017 249.349 37.8959 249.714 37.6335C250.079 37.3621 250.363 36.9968 250.586 36.5287C250.799 36.0605 250.799 35.4909 250.586 34.817C250.371 34.1445 249.532 33.3483 248.083 32.4045C246.633 31.4681 245.216 31.2996 243.839 31.899C242.46 32.4999 241.478 33.1068 240.9 33.7062C240.322 34.3055 240.101 34.811 240.251 35.2121C240.393 35.6147 240.647 35.98 241.012 36.3169C241.375 36.6539 242.168 37.0848 243.403 37.626C244.638 38.1598 245.905 38.3641 247.211 38.2329ZM58.8633 36.8209C59.5123 36.6897 59.987 36.4556 60.2808 36.1201C60.5731 35.7831 60.6054 35.1465 60.3906 34.2101C60.1775 33.2752 59.3379 32.8727 57.8881 33.0039C56.4398 33.1351 55.2031 33.3409 54.1908 33.6033C53.1768 33.8746 52.6699 34.1087 52.6699 34.3055C52.6699 34.5038 52.9234 34.811 53.4303 35.2121C53.9373 35.6147 54.8075 36.0172 56.0427 36.4198C57.2713 36.8209 58.2126 36.9611 58.8633 36.8209ZM326.752 36.0172C327.401 36.0172 327.876 35.886 328.17 35.6147C328.312 35.4834 328.462 35.3448 328.604 35.2121C328.17 34.8468 327.734 34.474 327.298 34.1087C326.428 33.3692 325.809 32.9681 325.444 32.901C325.081 32.8354 324.613 33.0337 324.027 33.5019C323.449 33.9686 323.157 34.3428 323.157 34.6052C323.157 34.8766 323.592 35.1763 324.463 35.5118C325.335 35.8488 326.095 36.0172 326.752 36.0172ZM92.1633 20.0454C92.3441 20.0082 92.5266 19.9783 92.709 19.9425C92.6687 19.7741 92.638 19.6056 92.5976 19.4371C92.5266 19.1016 92.2343 18.699 91.7274 18.2309C91.2204 17.7627 90.6731 17.3899 90.0951 17.1275C89.5171 16.8636 88.7566 16.5922 87.8073 16.3224C86.8644 16.0525 85.6696 15.9571 84.2197 16.0227C83.4916 16.0525 82.7699 16.0883 82.0417 16.1255C82.1838 16.3596 82.3356 16.5922 82.4776 16.8263C82.7699 17.2945 83.3091 17.7343 84.1083 18.1354C84.9091 18.538 86.3574 18.9704 88.4644 19.4445C90.5633 19.9053 91.7984 20.111 92.1633 20.0454ZM256.129 19.7383C256.493 19.7383 256.857 19.7383 257.214 19.7383C257.214 19.54 257.214 19.3357 257.214 19.1374C257.214 18.7363 256.739 18.2025 255.796 17.5286C254.853 16.8561 253.839 16.388 252.748 16.1255C251.663 15.8542 250.499 15.723 249.262 15.723C248.027 15.723 247.157 15.8244 246.65 16.0227C246.143 16.2195 245.921 16.4908 246.001 16.8263C246.072 17.1633 246.508 17.5286 247.307 17.9312C248.106 18.3337 249.595 18.7363 251.764 19.1374C253.959 19.54 255.409 19.7383 256.129 19.7383ZM335.13 17.4272C337.592 17.3616 338.9 17.2587 339.05 17.1275C339.121 17.0604 339.192 16.9948 339.263 16.9292C338.718 16.5639 338.178 16.1911 337.633 15.8244C336.548 15.0863 335.422 14.5823 334.258 14.3184C333.094 14.0485 331.899 13.8801 330.672 13.8145C329.436 13.7474 328.351 13.7772 327.409 13.9158C326.466 14.0485 325.777 14.2155 325.343 14.4213C324.907 14.6256 324.653 14.8239 324.582 15.0281C324.511 15.225 324.874 15.5619 325.667 16.0301C326.466 16.4983 327.622 16.8636 329.151 17.1335C330.664 17.3974 332.66 17.5003 335.13 17.4272ZM202.816 17.3318C203.577 17.3318 204.337 17.3318 205.106 17.3318C206.627 17.3318 208.115 17.1633 209.563 16.8263C211.013 16.4908 212.248 16.0584 213.262 15.5172C214.276 14.9834 215.623 13.807 217.286 11.9999C218.949 10.1943 220.263 9.11923 221.204 8.78226C221.681 8.61378 222.147 8.44529 222.622 8.2783C222.005 8.17542 221.387 8.07999 220.77 7.9786C219.535 7.7803 218.014 7.37027 216.201 6.77087C214.386 6.17149 212.898 5.90161 211.742 5.96722C210.577 6.03282 209.492 6.23709 208.479 6.5666C207.466 6.90358 206.373 7.40754 205.217 8.07254C204.053 8.74648 203.181 9.38165 202.603 9.98104C202.025 10.5819 201.589 11.2544 201.297 11.9924C201.003 12.732 200.861 13.6683 200.861 14.809C200.861 15.3785 200.861 15.9496 200.861 16.5192C201.186 16.2195 201.51 15.9123 201.843 15.6126C202.492 15.0132 203.473 14.3035 204.781 13.5073C206.087 12.7022 207.537 12.0297 209.136 11.4959C210.736 10.9621 212.074 10.6624 213.159 10.5894C213.706 10.5521 214.244 10.5223 214.791 10.4865C213.808 10.8518 212.835 11.2246 211.853 11.5913C209.896 12.3294 208.154 13.2002 206.627 14.2021C205.106 15.2041 204.084 15.9779 203.577 16.5132C203.323 16.7905 203.07 17.0604 202.816 17.3318ZM31.3352 16.4252C31.4773 16.0883 32.5316 15.5843 34.4868 14.9178C36.4437 14.2454 37.8209 13.4402 38.6217 12.5053C39.4209 11.569 39.8568 10.5953 39.9279 9.58741C39.9989 8.58545 39.8568 7.34194 39.4919 5.87179C39.1287 4.39419 38.9462 3.09253 38.9462 1.9519C38.9462 0.811268 39.0173 0.21188 39.1593 0.144783C39.2304 0.108997 39.303 0.0791779 39.3741 0.0433922C39.5549 0.378872 39.7373 0.715843 39.9198 1.04536C40.2847 1.71781 40.648 2.82265 41.0048 4.35841C41.3697 5.90161 41.5828 7.13618 41.6538 8.07254C41.7249 9.0089 41.6538 9.87965 41.4407 10.6833C41.226 11.4885 40.6399 12.3592 39.6986 13.2941C38.7557 14.2304 37.0846 15.0714 34.6935 15.8035C33.4971 16.1688 32.3024 16.5415 31.106 16.9068C31.1932 16.7607 31.2642 16.5922 31.3352 16.4252ZM178.663 16.9292C178.735 16.9292 178.806 16.9292 178.885 16.9292C178.845 16.798 178.814 16.6593 178.774 16.5266C178.703 16.2567 178.338 15.8914 177.689 15.4233C177.04 14.9551 176.422 14.6554 175.836 14.5167C175.258 14.384 174.458 14.3482 173.444 14.4138C172.937 14.4496 172.431 14.4795 171.924 14.5167C171.964 14.6181 171.996 14.7135 172.035 14.8164C172.106 15.0207 172.4 15.2175 172.907 15.4158C173.414 15.6126 174.466 15.9198 176.058 16.3224C177.65 16.7249 178.513 16.9292 178.663 16.9292ZM361.239 14.5167C361.097 14.384 361.026 13.7474 361.026 12.6067C361.026 11.4661 361.137 10.4283 361.35 9.49199C361.563 8.55563 361.825 7.81757 362.111 7.28379C362.403 6.75 362.91 6.17894 363.632 5.57209C364.36 4.97271 365.404 4.50452 366.783 4.16755C368.16 3.83059 370.227 3.53089 372.983 3.26101C375.739 2.98965 377.442 2.85844 378.1 2.85844C378.757 2.85844 379.294 2.98965 379.73 3.26101C380.166 3.53089 380.379 3.83059 380.379 4.16755C380.379 4.50452 378.456 4.90561 374.615 5.37379C370.774 5.84197 368.193 6.28182 366.887 6.68291C365.579 7.08548 364.676 7.65654 364.169 8.3946C363.662 9.13414 363.267 10.3031 362.974 11.9119C362.681 13.5207 362.356 14.3915 361.991 14.5227C361.636 14.6479 361.383 14.6479 361.239 14.5167Z" fill="#D4AF37"/>
</g>
</svg>
