<svg width="1143" height="1143" viewBox="0 0 1143 1143" fill="none" xmlns="http://www.w3.org/2000/svg">
<path d="M5.86416 294C4.40205 295.072 4.87102 294.733 4.64113 294.898C7.27098 293.047 5.79062 294.036 5.86416 294Z" fill="#8C7837" fill-opacity="0.7"/>
<path d="M32.5976 278.022L32.1836 278.416C33.5258 277.693 34.8313 276.905 36.1827 276.19C34.9785 276.767 33.7926 277.408 32.5976 278.022Z" fill="#8C7837" fill-opacity="0.7"/>
<path d="M60.2195 269.743C59.2372 269.494 58.2453 269.474 57.2622 269.693C55.9392 269.957 54.6345 270.286 53.3481 270.688C51.9605 271.145 50.5086 271.62 49.0843 272.077C47.6783 272.562 46.2726 272.927 45.0138 273.238L44.1045 273.236C43.4883 273.786 42.8538 274.309 42.2376 274.832C48.1097 272.774 55.7829 270.095 60.2195 269.743Z" fill="#8C7837" fill-opacity="0.7"/>
<path d="M75.9495 271.99C74.9219 271.262 79.0921 271.205 72.4317 271.883C72.7806 271.948 72.8816 271.985 73.0928 272.031C73.6899 271.995 74.5258 271.978 75.9495 271.99Z" fill="#8C7837" fill-opacity="0.7"/>
<path d="M73.093 272.031C71.6231 272.149 72.1282 272.269 72.7435 272.306C73.3681 272.335 74.1029 272.318 73.093 272.031Z" fill="#8C7837" fill-opacity="0.7"/>
<path d="M86.6318 271.565L84.7208 271.865L82.8189 272.202C83.2502 272.46 84.3155 272.627 85.1235 272.812C85.9223 272.997 86.464 273.154 85.8484 273.3C89.7433 273.122 88.9359 272.505 86.6318 271.565Z" fill="#8C7837" fill-opacity="0.7"/>
<path d="M90.2348 270.055L88.232 270.3C88.5991 270.539 89.1317 270.65 90.2348 270.055Z" fill="#8C7837" fill-opacity="0.7"/>
<path d="M83.9968 270.881L88.2321 270.3C87.654 269.913 87.5449 269.197 86.2845 270.499C86.5978 269.856 85.7794 270.461 83.9968 270.881Z" fill="#8C7837" fill-opacity="0.7"/>
<path d="M81.5545 270.538C79.3232 270.075 76.4391 269.951 80.3075 269.075C76.5594 269.354 75.0155 269.885 75.3365 270.207C75.5016 270.372 76.126 270.484 77.1731 270.55C78.6334 270.625 80.0939 270.618 81.5545 270.538Z" fill="#8C7837" fill-opacity="0.7"/>
<path d="M61.2879 267.816C60.2591 267.842 59.2394 267.941 58.2105 268.004C57.4016 268.37 56.5928 268.727 55.793 269.112C56.9972 268.517 61.5812 268.257 61.2879 267.816Z" fill="#8C7837" fill-opacity="0.7"/>
<path d="M110.249 275.808C110.543 275.248 109.149 273.978 108.93 273.179C107.984 273.232 107.038 273.286 106.082 273.367C107.496 273.966 110.158 274.889 110.249 275.808Z" fill="#8C7837" fill-opacity="0.7"/>
<path d="M108.93 273.179L111.07 273.035L113.22 272.928C112.292 272.715 111.548 272.586 110.952 272.511C110.511 272.455 110.061 272.445 109.611 272.491C108.977 272.572 108.848 272.829 108.93 273.179Z" fill="#8C7837" fill-opacity="0.7"/>
<path d="M90.854 267.484L83.7878 269.145L87.996 268.298L92.241 267.487L90.854 267.484Z" fill="#8C7837" fill-opacity="0.7"/>
<path d="M125.645 279.973L123.09 280.787C124.56 280.458 126.067 280.102 127.583 279.728L125.645 279.973Z" fill="#8C7837" fill-opacity="0.7"/>
<path d="M135.724 283.148C134.732 283.505 135.144 284.286 135.547 285.012C135.959 285.748 136.353 286.419 135.398 286.473C136.674 286.879 137.987 287.083 139.328 287.085C140.605 287.096 141.855 286.942 143.03 286.87C141.8 286.684 140.634 286.306 139.523 285.753C138.156 285.035 136.89 284.16 135.724 283.148Z" fill="#8C7837" fill-opacity="0.7"/>
<path d="M146.952 286.784C145.639 286.699 144.335 286.734 143.03 286.87C144.343 287.083 145.648 287.058 146.952 286.784Z" fill="#8C7837" fill-opacity="0.7"/>
<path d="M120.243 274.803C120.435 275.207 120.673 275.584 120.967 275.925C121.214 276.201 121.49 276.458 121.792 276.679C122.214 277.001 122.664 277.278 123.132 277.517C122.72 276.745 122.289 275.982 121.859 275.228C121.363 275.099 120.812 274.951 120.243 274.803Z" fill="#8C7837" fill-opacity="0.7"/>
<path d="M121.813 275.155L121.859 275.228C123.612 275.755 124.815 276.151 125.329 276.317L121.813 275.155Z" fill="#8C7837" fill-opacity="0.7"/>
<path d="M119.839 274.702C119.986 274.739 120.096 274.766 120.243 274.803C120.115 274.592 120.033 274.509 119.839 274.702Z" fill="#8C7837" fill-opacity="0.7"/>
<path d="M102.221 269.568C103.507 269.249 105.483 269.05 106.521 268.629C107.56 268.217 107.662 267.611 105.11 266.661C103.216 267.567 106.099 268.656 102.221 269.568Z" fill="#8C7837" fill-opacity="0.7"/>
<path d="M118.153 272.008C116.684 271.574 115.206 271.113 113.71 270.734C113.755 271.202 114.47 272.012 113.193 272.258C114.837 272.141 116.491 272.097 118.153 272.008Z" fill="#8C7837" fill-opacity="0.7"/>
<path d="M120.431 271.92C119.669 271.955 118.916 271.954 118.153 272.008C118.695 272.156 119.236 272.349 119.778 272.516L120.431 271.92Z" fill="#8C7837" fill-opacity="0.7"/>
<path d="M140.447 281.943C141.504 281.853 142.542 281.937 143.57 282.186C144.617 282.445 145.691 282.823 146.829 283.211C145.701 282.52 144.526 281.848 143.333 281.268C142.13 280.724 140.918 280.226 139.716 279.792C139.191 280.306 137.84 281.039 140.447 281.943Z" fill="#8C7837" fill-opacity="0.7"/>
<path d="M131.535 278.219C131.673 278.219 131.847 278.256 131.976 278.247C131.765 277.999 131.573 277.889 131.535 278.219Z" fill="#8C7837" fill-opacity="0.7"/>
<path d="M168.822 292.374C168.749 292.209 168.712 292.025 168.639 291.851C168.556 291.961 168.483 292.071 168.391 292.181L168.822 292.374Z" fill="#8C7837" fill-opacity="0.7"/>
<path d="M139.405 279.269C138.12 278.394 136.724 278.172 135.217 278.592C136.751 278.861 138.247 279.258 139.716 279.793C139.946 279.563 140.029 279.38 139.405 279.269Z" fill="#8C7837" fill-opacity="0.7"/>
<path d="M153.278 288.502C152.462 287.583 151.582 286.718 150.655 285.926C151.315 287.011 152.745 288.915 153.278 288.502Z" fill="#8C7837" fill-opacity="0.7"/>
<path d="M132.471 278.992C132.37 278.992 132.269 278.992 132.177 278.982C132.681 279.598 132.654 279.369 132.471 278.992Z" fill="#8C7837" fill-opacity="0.7"/>
<path d="M132.471 278.992C133.407 278.975 134.317 278.848 135.218 278.592C134.143 278.388 133.069 278.276 131.976 278.247C132.177 278.477 132.342 278.716 132.471 278.992Z" fill="#8C7837" fill-opacity="0.7"/>
<path d="M181.824 282.263C181.189 283.135 179.444 283.408 177.47 282.973C176.386 282.733 175.358 282.345 174.386 281.811C173.294 281.213 172.349 280.43 171.542 279.474C166.693 279.063 166.727 286.86 168.639 291.85C168.888 291.336 169.293 290.997 169.844 290.842C170.579 290.641 171.865 290.542 174.188 290.986C173.73 290.324 173.189 289.736 172.583 289.211C171.831 288.521 170.969 287.758 170.272 287.04C168.878 285.605 168.127 284.318 170.313 284.221C176.419 285.663 174.626 286.937 176.836 289.209C176.26 287.481 178.427 287.457 180.834 287.396C181.431 287.379 182.046 287.352 182.634 287.298C183.185 287.271 183.737 287.18 184.269 287.043C185.253 286.778 185.979 286.256 186.109 285.237C184.282 284.775 182.418 284.386 180.573 283.997C180.739 283.41 182.962 283.422 181.824 282.263Z" fill="#8C7837" fill-opacity="0.7"/>
<path d="M160.772 288.449L158.963 287.996C160.762 289.165 161.844 290.499 163.751 293.028C166.984 293.216 167.912 292.74 168.391 292.181L164.242 290.31C162.837 289.729 161.442 289.139 160.065 288.512L160.772 288.449Z" fill="#8C7837" fill-opacity="0.7"/>
<path d="M151.355 284.734C152.385 283.964 154.02 283.783 155.206 283.362C156.382 282.932 157.108 282.272 156.248 280.581C153.65 279.621 152.594 279.675 151.767 279.968C150.93 280.269 150.333 280.764 148.652 280.633C150.754 281.298 151.635 281.639 151.846 281.869C152.066 282.09 151.635 282.126 151.111 282.208C150.587 282.289 149.972 282.399 149.834 282.711C149.769 282.867 149.815 283.069 150.053 283.354C150.457 283.768 150.897 284.136 151.374 284.458C150.529 284.273 149.73 284.107 148.978 283.894C148.234 283.682 147.518 283.442 146.83 283.211C148.169 284.022 149.444 284.924 150.655 285.927C150.6 285.835 150.564 285.78 150.518 285.706L150.481 285.697C150.481 285.678 150.49 285.678 150.5 285.669C150.252 285.246 150.188 285.026 150.528 285.357C150.583 285.357 150.647 285.366 150.702 285.385C150.877 285.128 151.089 284.917 151.346 284.743C153.502 286.234 151.51 285.469 150.702 285.385C150.628 285.477 150.555 285.568 150.5 285.669C150.5 285.678 150.509 285.697 150.518 285.706C151.904 286.121 153.3 286.528 154.713 286.897C156.118 287.276 157.55 287.609 158.964 287.997C157.386 286.929 155.192 286.209 151.355 284.734Z" fill="#8C7837" fill-opacity="0.7"/>
<path d="M110.23 263.592C110.497 263.767 110.469 263.886 110.487 264.015C111.093 263.869 111.332 263.75 110.23 263.592Z" fill="#8C7837" fill-opacity="0.7"/>
<path d="M113.874 265.048C113.525 265.121 113.203 265.314 112.698 265.423C111.945 265.569 111.191 265.549 110.448 265.383C108.63 264.673 110.522 264.575 110.486 264.014C109.127 264.343 105.856 264.715 109.822 265.979L110.484 265.824C111.429 266.092 112.338 266.433 113.229 266.857C114.073 267.253 114.899 267.695 115.697 268.192C117.12 269.113 118.01 269.914 117.688 269.977C116.873 267.983 115.599 266.337 113.874 265.048Z" fill="#8C7837" fill-opacity="0.7"/>
<path d="M133.885 272.932L137.613 273.461C138.844 273.656 140.074 273.897 141.323 274.11C140.268 273.144 139.213 272.15 138.122 271.23L138.037 272.323C134.007 270.801 134.584 272.29 133.885 272.932Z" fill="#8C7837" fill-opacity="0.7"/>
<path d="M169.123 293.743L167.218 295.595C168.983 295.075 170.756 294.554 172.521 294.143C171.951 294.06 171.391 293.976 170.822 293.911L169.123 293.743Z" fill="#8C7837" fill-opacity="0.7"/>
<path d="M177.843 297.495L176.591 299.21L179.383 299.233L177.843 297.495Z" fill="#8C7837" fill-opacity="0.7"/>
<path d="M692.312 287.146L694.248 288.454C693.652 287.948 693.01 287.515 692.312 287.146Z" fill="#8C7837" fill-opacity="0.7"/>
<path d="M681.3 274.639L680.253 275.032C681.208 275.217 681.731 275.172 681.3 274.639Z" fill="#8C7837" fill-opacity="0.7"/>
<path d="M411.38 334.856C415.293 334.825 420.16 335.448 418.574 333.636L416.491 332.209C415.01 333.529 413.309 334.418 411.38 334.856Z" fill="#8C7837" fill-opacity="0.7"/>
<path d="M551.605 243.112C551.247 242.955 550.871 242.798 550.504 242.641C549.896 243.577 549.344 244.495 548.865 245.321C549.269 244.982 549.702 244.615 550.162 244.23C550.621 243.872 551.109 243.497 551.605 243.112Z" fill="#8C7837" fill-opacity="0.7"/>
<mask id="mask0_139_11" style="mask-type:luminance" maskUnits="userSpaceOnUse" x="549" y="232" width="8" height="4">
<path d="M556.87 235.974L549.816 235.963L549.821 232.666L556.875 232.677L556.87 235.974Z" fill="white"/>
</mask>
<g mask="url(#mask0_139_11)">
<path d="M551.84 233.266C553.438 233.397 555.055 233.629 556.634 233.806C555.983 233.631 555.312 233.501 554.633 233.427C553.705 233.306 552.777 233.258 551.84 233.266Z" fill="#8C7837" fill-opacity="0.7"/>
</g>
<path d="M756.643 334.408C757.553 333.858 758.455 333.235 759.328 332.639C758.768 332.482 758.199 332.417 757.611 332.462C757.326 332.453 757.114 332.581 756.976 332.838C756.783 333.233 756.92 333.885 756.643 334.408Z" fill="#8C7837" fill-opacity="0.7"/>
<path d="M263.222 352.466C263.8 353.055 264.35 353.588 264.891 354.085C265.442 354.573 265.992 355.006 266.524 355.411C267.488 356.165 268.515 356.837 269.598 357.427C269.231 357.059 268.874 356.7 268.544 356.341C268.223 355.964 267.911 355.606 267.618 355.256C267.022 354.557 266.49 353.922 265.985 353.416C264.986 352.395 264.141 351.88 263.222 352.466Z" fill="#8C7837" fill-opacity="0.7"/>
<path d="M669.7 298.538C670.921 299.275 671.665 299.404 672.024 299.038C670.794 298.237 669.931 297.941 669.7 298.538Z" fill="#8C7837" fill-opacity="0.7"/>
<path d="M278.3 361.197C277.841 360.764 277.346 360.451 276.859 360.065C274.316 359.537 271.892 358.661 269.598 357.427C270.698 358.576 271.964 359.515 273.387 360.243C274.13 360.602 274.902 360.879 275.7 361.064C276.564 361.231 277.427 361.278 278.3 361.197Z" fill="#8C7837" fill-opacity="0.7"/>
<path d="M1124.75 272.972C1124.08 272.337 1123.03 271.27 1122.04 270.286C1122.49 270.792 1123.3 271.601 1124.75 272.972Z" fill="#8C7837" fill-opacity="0.7"/>
<path d="M210.564 317.843C208.775 316.839 210.16 317.87 210.564 317.843Z" fill="#8C7837" fill-opacity="0.7"/>
<path d="M207.076 304.731C207.608 304.796 208.04 304.631 208.39 304.218C208.022 304.567 207.581 304.741 207.076 304.731Z" fill="#8C7837" fill-opacity="0.7"/>
<path d="M303.828 352.528C303.892 352.538 303.938 352.547 304.012 352.556C303.434 352.05 303.526 352.142 303.828 352.528Z" fill="#8C7837" fill-opacity="0.7"/>
<path d="M208.566 315.286C209.116 316.004 209.721 316.666 210.382 317.282C209.841 316.556 209.235 315.894 208.566 315.286Z" fill="#8C7837" fill-opacity="0.7"/>
<path d="M208.316 316.416C207.784 315.946 207.353 315.597 206.94 315.265C206.517 315.439 206.572 315.77 208.316 316.416Z" fill="#8C7837" fill-opacity="0.7"/>
<path d="M212.996 319.335C212.06 318.736 211.188 318.046 210.381 317.282C210.629 317.641 210.702 317.834 210.564 317.843C211.078 318.147 211.812 318.589 212.996 319.335Z" fill="#8C7837" fill-opacity="0.7"/>
<path d="M887.45 299.467C887.606 299.421 887.772 299.394 887.937 299.366C889.052 297.356 888.408 298.026 887.45 299.467Z" fill="#8C7837" fill-opacity="0.7"/>
<path d="M445.046 284.556C444.972 284.63 444.963 284.712 444.898 284.776C444.999 284.749 445.128 284.703 445.211 284.676L445.046 284.556Z" fill="#8C7837" fill-opacity="0.7"/>
<path d="M450.446 278.86C449.328 283.065 447.591 283.798 445.21 284.676L451.018 288.781L450.446 278.86Z" fill="#8C7837" fill-opacity="0.7"/>
<mask id="mask1_139_11" style="mask-type:luminance" maskUnits="userSpaceOnUse" x="180" y="232" width="960" height="141">
<path d="M1139.78 372.612L180.458 371.151L180.67 232.104L1139.99 233.565L1139.78 372.612Z" fill="white"/>
</mask>
<g mask="url(#mask1_139_11)">
<path d="M718.677 314.208C717.945 312.554 717.212 310.973 716.517 309.3C719.85 310.15 722.043 311.421 723.273 311.827C724.503 312.251 724.715 311.857 724.048 309.321C721.39 311.797 717.794 308.751 714.272 305.43C712.502 303.783 710.751 302.054 709.071 301.041C707.401 300.001 705.795 299.658 704.342 300.749L703.162 297.193C703.767 297.965 704.19 297.8 704.786 298.564C703.836 294.934 702.045 294.895 699.841 294.846C697.655 294.806 695.056 294.765 692.536 291.124C690.914 288.449 690.275 286.142 692.312 287.147L686.385 283.142C685.147 281.542 686.416 281.076 687.653 282.676L683.884 278.895C682.628 277.635 681.344 276.374 680.051 275.114L680.253 275.032C678.398 274.662 674.708 273.324 673 272.614C671.829 269.931 674.524 273.076 674.673 271.946C672.847 270.915 671.057 269.884 669.213 268.889C669.004 267.364 670.097 267.145 671.612 267.726C673.466 268.546 675.044 269.734 676.346 271.288C676.689 269.02 676.507 267.734 676.031 266.897C675.536 266.06 674.729 265.683 673.682 265.231C672.351 264.724 671.131 264.015 670.021 263.113C669.223 262.46 668.489 261.714 667.847 260.896C667.471 260.427 667.096 259.903 666.702 259.315C666.298 258.726 665.895 258.083 665.483 257.356C666.309 257.9 667.171 258.443 667.988 259.004L670.447 260.698C670.467 259.421 670.23 258.199 669.718 257.023C669.196 255.911 668.545 254.881 667.757 253.934C667.363 253.419 666.941 252.904 666.501 252.371C666.043 251.837 665.566 251.285 665.089 250.697C664.612 250.108 664.127 249.474 663.641 248.793C663.146 248.104 662.623 247.387 662.129 246.578C662.247 247.101 662.778 248.223 663.318 249.574C663.895 250.989 664.388 252.423 664.799 253.893C665.475 256.704 665.215 258.798 662.103 257.241C661.004 255.595 659.234 253.71 655.415 252.593C656.179 251.574 655.785 250.6 654.648 249.606C653.52 248.603 651.767 247.517 649.785 246.302L651.966 243.66C651.029 243.236 650.056 242.922 649.046 242.728C648.376 242.626 647.706 242.625 647.026 242.715C645.85 242.87 644.876 243.217 643.232 243.105C640.883 241.576 639.765 240.087 639.161 238.68C638.566 237.293 638.531 235.915 638.404 234.62C636.349 233.45 635.578 233.284 635.403 233.632C635.246 233.972 635.685 234.818 636.042 235.672C636.408 236.518 636.692 237.372 636.269 237.748C636.057 237.941 635.662 238.014 635.019 237.912C634.625 237.838 634.239 237.736 633.863 237.607C633.394 237.478 632.853 237.302 632.219 237.072C629.302 235.111 626.126 233.793 622.673 233.135C620.91 232.83 619.138 232.606 617.356 232.466C616.401 232.428 615.419 232.39 614.39 232.36C613.361 232.35 612.305 232.284 611.175 232.328C608.798 231.222 609.102 230.763 609.837 230.406C610.563 230.049 611.721 229.812 610.895 229.15L608.359 230C607.514 230.283 606.687 230.576 605.859 230.915C604.776 230.674 605.264 229.913 605.522 229.527C603.519 229.735 603.325 230.571 602.855 231.342C602.386 232.122 601.659 232.773 598.702 232.924C598.195 233.805 597.258 233.831 595.991 233.416C594.715 233.038 593.109 232.264 591.282 231.489C589.392 230.669 587.427 230.115 585.388 229.809C583.35 229.622 581.31 229.858 579.545 230.985C577.719 230.109 580.329 228.855 579.734 227.568C577.235 228.4 575.47 228.958 574.092 229.443C572.732 229.946 571.748 230.321 570.829 230.714C569.837 231.135 568.89 231.63 567.971 232.189C566.886 232.839 565.544 233.645 563.723 234.864C561.391 234.493 559.003 234.076 556.634 233.806C559.343 234.582 559.212 236.033 557.859 237.702C557.022 238.675 556.102 239.546 555.09 240.334C553.987 241.251 552.773 242.214 551.605 243.112C553.542 243.941 555.157 244.66 556.204 244.983C553.584 246.173 551.002 247.363 548.474 248.673C547.354 248.377 547.861 247.046 548.865 245.321C548.368 245.734 547.908 246.137 547.568 246.495C544.317 246.031 545.294 243.754 546.979 241.36C548.172 241.757 549.347 242.162 550.504 242.642C552.078 240.164 553.598 237.476 552.737 235.628C551.955 236.316 551.073 236.829 550.099 237.167C550.522 236.497 550.771 235.928 550.441 235.652C550.065 235.376 549.31 236.303 548.114 237.486C547.17 236.428 546.207 235.37 545.226 234.312L545.123 235.892C544.131 235.955 543.129 235.99 542.137 236.071L539.152 236.305C537.149 236.449 535.174 236.685 533.181 236.893C531.452 238.415 529.906 240.131 528.324 241.809C526.751 243.506 525.205 245.294 523.503 247.028C519.75 251.072 515.519 254.538 510.822 257.442C512.554 253.615 509.57 253.022 508.353 249.962C510.703 250.82 512.818 249.436 515.245 247.658C515.852 247.2 516.477 246.723 517.121 246.237C517.765 245.761 518.436 245.293 519.135 244.844C520.55 243.891 522.076 243.186 523.712 242.73C521.975 243.177 521.158 242.983 520.846 242.569C520.535 242.146 520.738 241.494 521.069 241.072C519.359 242.328 517.639 243.556 515.966 244.821C514.311 246.114 512.637 247.351 511.019 248.671C510.178 246.107 507.824 247.849 504.48 248.202C506.69 250.107 505.016 251.867 502.359 253.618C501.044 254.507 499.472 255.395 498.011 256.284C496.678 257.072 495.446 257.997 494.323 259.052C494.003 258.684 493.829 258.252 493.793 257.765C493.757 257.278 493.877 256.829 494.135 256.416C494.742 255.406 496.159 254.224 498.962 253.098C498.126 253.014 497.308 253.086 496.509 253.324C495.875 253.534 495.314 253.873 494.827 254.341C493.907 255.203 493.336 256.405 492.783 257.617C492.23 258.847 491.713 260.086 490.867 261.021C490.03 261.957 488.871 262.589 487.062 262.641C488.303 261.89 489.112 261.744 489.177 260.679C488.073 262.193 485.591 263.704 483.486 264.555C481.391 265.434 479.664 265.633 480.106 264.468L481.338 263.698C479.169 264.778 476.512 266.299 473.782 268.022C472.44 268.892 471.07 269.809 469.727 270.753C468.394 271.706 467.088 272.686 465.856 273.658C460.964 277.582 457.348 281.526 458.015 283.805C457.612 283.363 456.03 278.566 456.004 277.492C454.092 284.846 452.28 292.172 450.469 299.508C449.529 295.465 439.644 290.977 444.907 284.777C442.729 285.572 440.064 286.597 436.917 290.367C438.488 289.974 443.214 292.902 441.678 294.36C434.514 293.973 437.076 294.675 429.185 295.526C431.537 294.951 432.813 301.419 429.697 303.261C429.662 302.195 426.122 298.415 426.868 297.158C425.485 300.471 424.093 303.776 422.674 307.071C423.963 304.951 420.228 302.612 417.648 302.278C419.062 302.776 411.139 306.337 409.446 308.061L413.369 307.24C408.893 309.53 407.896 312.596 406.909 315.745C405.921 318.875 404.934 322.107 400.485 324.488C400.937 322.789 399.257 316.431 394.542 318.242C394.301 320.143 393.89 324.606 392.56 329.39C391.904 331.859 390.991 334.228 389.821 336.513C388.697 338.743 387.197 340.688 385.33 342.338L382.98 341.508C381.15 343.122 379.274 344.671 377.37 346.239C377.924 344.733 378.79 342.751 379.804 340.52C380.808 338.253 381.988 335.794 383.158 333.27C383.748 332.003 384.347 330.755 384.936 329.525C385.526 328.313 386.107 327.111 386.678 325.946C387.82 323.669 388.88 321.586 389.828 320.008C385.924 320.516 387.956 318.71 383.176 321.366C380.725 320.775 384.669 317.814 386.021 316.953C384.082 317.813 382.133 318.582 380.194 319.396L377.272 320.549L375.82 321.116L374.349 321.656C375.366 323.145 373.591 325.007 371.724 326.731C370.823 327.51 369.995 328.345 369.222 329.244C368.596 330.024 368.301 330.74 368.704 331.383C372.465 328.44 376.116 325.424 379.657 322.261C380.179 322.997 380.279 324.154 379.983 325.531C379.594 327.184 378.922 328.707 377.973 330.111C377.421 330.946 376.823 331.744 376.16 332.497C375.443 333.295 374.67 334.028 373.843 334.707C372.077 336.164 370.11 337.263 367.941 337.995C366.582 337.772 366.41 336.137 366.468 334.42C366.535 332.702 366.822 330.921 366.511 330.406C365.939 332.04 359.449 335.713 358.366 335.124C359.341 334.097 360.307 333.097 361.245 332.033C360.069 332.169 359.003 332.599 358.065 333.332C357.164 333.992 356.364 334.864 355.49 335.634C354.625 336.459 353.651 337.101 352.557 337.576C351.197 338.07 349.81 338.123 348.415 337.736C347.744 337.79 347.092 337.706 346.459 337.485C345.697 337.263 344.889 336.959 344.155 336.71C342.686 336.202 341.51 335.934 341.592 337C345.701 340.147 349.844 352.093 348.204 355.7C347.992 355.673 347.111 355.644 345.862 355.513C344.604 355.383 342.978 355.206 341.316 354.974C337.955 354.454 334.43 353.696 333.026 352.885C330.998 351.605 332.057 349.495 333.08 347.448C334.13 345.411 335.153 343.346 333.492 342.278C333.555 343.279 331.908 344.764 331.191 345.287C328.923 344.778 331.591 342.183 327.079 343.269C326.761 347.016 317.627 343.934 325.256 346.573C324.364 346.893 323.446 347.093 322.499 347.175C321.801 347.201 321.113 347.154 320.424 347.043C319.754 346.95 319.056 346.793 318.202 346.718C317.127 346.615 316.062 346.595 314.987 346.649C315.858 347.789 314.716 349.845 312.619 351.651C311.497 352.614 310.274 353.42 308.941 354.061C307.673 354.693 306.331 355.113 304.926 355.322C305.295 354.432 304.295 353.126 303.828 352.528C299.686 351.971 295.684 350.89 291.819 349.305C290.966 348.954 290.121 348.604 289.267 348.254C288.423 347.885 287.56 347.507 286.688 347.12C285.798 346.761 284.908 346.346 283.971 345.931C283.494 345.728 283.017 345.526 282.521 345.314C282.026 345.102 281.53 344.871 281.007 344.65C280.806 344.071 279.806 343.142 279.192 342.213C278.569 341.285 278.313 340.43 279.461 340.12C278.754 340.137 278.01 340.292 277.119 340.309C275.998 340.307 274.952 340.048 273.961 339.542C273.154 338.236 273.137 337.694 273.477 337.612C273.826 337.53 274.56 337.843 275.35 338.129C276.929 338.738 278.636 339.301 277.749 336.719C277.436 337.15 276.811 337.323 275.985 337.331C274.974 337.321 273.992 337.172 273.019 336.904C271.908 336.636 270.696 336.295 269.53 335.916C268.355 335.547 267.198 335.205 266.188 334.937C265.818 336.645 267.727 338.008 270.233 338.985C271.527 339.474 272.858 339.861 274.226 340.13C275.567 340.398 276.834 340.611 277.862 340.723C277.282 341.843 276.417 342.668 275.278 343.208C273.825 343.886 272.3 344.278 270.702 344.395C267.101 344.684 262.427 343.933 257.663 342.015C254.029 340.264 253.755 339.144 254.169 338.492C254.584 337.822 255.695 337.567 254.961 337.437C252.034 335.182 249.712 333.948 247.674 333.256C245.93 332.702 244.13 332.36 242.303 332.228C239.08 331.874 236.27 331.429 232.493 326.583C230.407 321.519 235.706 321.895 236.095 319.617C241.785 322.483 242.706 326.847 246.202 329.304L242.81 325.074C244.986 325.518 248.758 327.462 250.114 329.476C249.254 327.261 244.456 323.497 238.906 319.199C233.319 314.947 226.943 310.263 222.945 306.16C220.75 305.835 217.362 304.737 218.067 306.603L221.215 308.252C222.587 311.974 213.96 307.194 217.041 310.578C212.23 309.303 206.518 308.633 201.639 304.125L202.278 300.691C201.919 301.582 204.926 304.599 207.02 304.731C205.468 304.627 203.92 302.356 202.122 300.379C200.298 298.447 198.243 296.773 195.89 297.871L198.703 302.146C197.491 301.906 196.169 301.738 194.8 301.553C194.112 301.46 193.423 301.367 192.716 301.274C192.009 301.181 191.293 301.079 190.586 300.958C187.748 300.476 185.003 299.609 182.71 297.879C183.111 299.9 183.441 299.965 183.9 300.177C184.359 300.379 184.956 300.757 185.797 303.376C185.397 300.482 188.545 302.278 191.481 303.926C194.372 305.648 197.06 307.214 195.872 303.657C196.565 306.607 197.877 307.876 199.335 309.256C200.793 310.618 202.454 311.961 203.726 314.994C204.168 313.994 203.225 312.21 206.94 315.265C207.4 315.119 207.868 315.046 208.336 315.038C208.419 315.121 208.492 315.194 208.566 315.286C208.511 315.194 208.474 315.121 208.419 315.029C208.676 315.011 208.713 314.993 208.355 314.946C207.659 313.926 207.182 312.942 207.193 312.235C208.856 311.861 211.316 312.71 213.684 313.751C216.052 314.811 218.365 316.018 219.806 316.231C221.897 318.292 218.116 316.559 218.756 318.397L223.044 319.074C222.003 321.258 226.973 326.703 220.658 323.957L223.098 325.742L225.52 327.583C226.666 329.284 228.004 330.811 229.545 332.172C230.949 333.488 232.554 334.5 234.335 335.21C235.362 336.296 237.263 336.905 238.502 337.219C239.76 337.542 240.348 337.58 238.731 337.541C241.695 339.134 244.687 340.746 247.762 342.321L247.494 342.863C251.54 345.928 256.515 348.094 261.572 350.535C262.82 351.162 264.133 351.761 265.381 352.442C266.656 353.115 267.951 353.796 269.208 354.579C270.52 355.343 271.795 356.181 273.025 357.074C274.355 358.004 275.639 358.997 276.859 360.065C278.742 360.453 280.633 360.851 282.837 361.36C283.378 361.498 283.938 361.646 284.526 361.812C285.104 361.979 285.719 362.126 286.353 362.32C286.986 362.505 287.638 362.726 288.327 362.939C289.015 363.151 289.74 363.391 290.493 363.658C290.74 364.421 290.996 365.202 291.261 365.947C293.75 366.116 297.293 367.278 300.581 367.991C302.05 368.342 303.546 368.565 305.062 368.659C306.347 368.688 307.367 368.524 307.91 368.011C310.358 370.908 316.437 371.376 322.629 370.605C325.743 370.261 328.876 369.613 331.733 369.048C333.167 368.738 334.536 368.483 335.785 368.246C337.053 368.028 338.21 367.864 339.23 367.783L339.032 365.073C340.392 364.837 341.733 364.572 343.066 364.216C344.398 363.842 345.721 363.421 347.081 362.955C348.441 362.498 349.801 361.893 351.226 361.308C351.934 360.997 352.669 360.695 353.404 360.356C354.13 360.008 354.884 359.66 355.656 359.294L354.585 357.125C355.973 356.227 357.462 355.568 359.061 355.157C360.779 354.663 362.708 354.327 364.73 353.925C365.749 353.734 366.788 353.534 367.853 353.333C368.91 353.105 369.976 352.868 371.06 352.594C373.247 352.074 375.369 351.352 377.428 350.436C377.215 351.511 374.992 352.178 373.292 352.285C379.326 352.744 384.245 349.482 388.705 346.036C393.192 342.58 397.23 338.894 402.392 338.305C403.708 336.708 405.4 335.765 407.448 335.483C407.274 335.593 407.126 335.722 407.007 335.887C407.301 335.749 407.586 335.594 407.871 335.429C408.982 335.256 410.158 335.12 411.38 334.856C410.342 334.826 409.323 334.926 408.321 335.154C409.103 334.668 410.059 334.018 411.08 333.248C412.082 332.469 413.158 331.57 414.17 330.617L416.491 332.209C416.657 332.062 416.813 331.98 416.988 331.824C419.762 331.231 418.185 329.667 415.973 328.755C416.856 327.801 417.611 326.737 418.219 325.58C420.219 326.768 421.534 325.521 422.96 324.265C424.376 323.009 425.857 321.716 428.289 322.776C428.484 321.389 431.096 319.207 433.488 316.805C435.879 314.393 438.042 311.76 437.375 309.481C437.778 309.923 438.587 309.722 437.41 310.547C440.176 309.338 442.915 308.103 444.416 305.57L447.27 307.567L450.183 300.325C454.547 299.781 456.53 299.839 454.715 304.089C460.339 295.647 460.197 298.632 464.709 291.043L465.542 293.01C467.859 291.379 470.107 286.532 472.495 287.06C476.242 287.038 482.871 282.85 490.574 278.463C498.278 274.029 507.332 269.432 515.26 267.828C512.573 265.665 514.529 265.503 516.991 265.36C519.434 265.189 522.364 265.101 521.716 262.768C523.138 263.752 525.453 263.673 523.612 265.838C527.005 263.639 530.018 263.092 532.6 262.426C533.243 262.252 533.868 262.07 534.466 261.841C535.063 261.64 535.642 261.384 536.193 261.063C537.453 260.321 538.501 259.34 539.33 258.129C540.642 259.26 538.389 260.68 539.426 261.27C539.923 260.775 541.404 259.307 542.45 259.897C543.459 260.486 541.722 261.411 540.747 262.392C542.3 261.88 543.706 261.129 544.985 260.112C545.895 259.369 546.567 258.452 547 257.36C547.775 255.377 547.549 253.172 547.285 251.05C549.572 251.504 551.17 251.515 552.512 251.03C553.844 250.564 554.902 249.537 556.098 247.84C556.961 248.365 558.053 248.89 558.31 249.441C558.438 249.726 558.364 250.011 557.95 250.322C557.215 250.78 556.433 251.138 555.597 251.375C555.946 251.32 556.479 251.239 557.15 251.166C557.811 251.103 558.61 251.021 559.492 250.931C560.365 250.84 561.32 250.704 562.303 250.605C563.286 250.505 564.297 250.387 565.28 250.242C566.263 250.087 567.227 249.951 568.118 249.787C568.927 249.641 569.726 249.44 570.507 249.175C571.895 248.7 572.796 248.122 572.788 247.259C573.274 247.655 574.257 247.629 575.222 247.446C576.003 247.319 576.756 247.09 577.473 246.761C580.651 246.656 582.378 246.805 584.086 246.835C584.508 246.845 584.931 246.846 585.381 246.856C585.822 246.875 586.29 246.885 586.804 246.895C587.824 246.924 589.018 246.861 590.57 246.882C590.01 246.651 589.441 246.448 588.872 246.255C590.188 244.209 591.53 244.128 593.155 244.443C594.78 244.739 596.643 245.688 599.187 245.71L598.985 246.105C600.361 246.667 601.463 247.128 602.362 247.433C602.812 247.589 603.207 247.719 603.565 247.82C603.932 247.931 604.244 248.042 604.529 248.106C605.309 248.328 606.108 248.403 606.917 248.349C607.725 248.277 608.506 248.397 609.258 248.701C609.956 248.969 610.644 249.282 611.305 249.632C611.718 249.853 612.186 250.093 612.691 250.397C613.186 250.71 613.737 251.078 614.333 251.483L614.493 248.865C615.783 246.415 618.104 247.897 620.682 250.234C622.003 251.338 623.341 252.746 624.791 253.841C625.149 254.117 625.525 254.375 625.901 254.614C626.259 254.863 626.635 255.102 627.021 255.305C627.773 255.728 628.581 256.005 629.435 256.144L627.96 253.781C628.979 253.765 629.86 254.464 630.621 255.531C631.409 256.836 632.031 258.224 632.479 259.685C633.512 262.837 634.141 266.181 635.323 267.432C635.662 268.241 633.937 267.402 632.899 267.144C634.274 269.038 635.099 269.847 635.714 270.041C636.311 270.262 636.688 269.868 637.075 269.327C637.866 268.244 638.686 266.574 641.687 268.287C641.64 269.38 640.619 270.048 640.048 270.819C639.478 271.59 639.33 272.48 640.971 273.989C641.145 274.375 641.429 274.67 641.806 274.863C642.347 275.213 642.916 275.508 643.504 275.747C644.183 276.052 644.981 276.347 645.826 276.688C646.67 277.047 647.57 277.425 648.497 277.849C652.168 279.545 656.086 282.003 657.119 285.568C657.113 283.575 657.07 281.554 660.153 283.222C662.135 284.878 663.571 288.333 665.284 291.422C666.053 292.93 667.025 294.3 668.18 295.541C669.271 296.728 670.611 297.41 672.209 297.596C672.364 298.349 672.263 298.781 672.023 299.037C675.519 301.284 682.141 307.705 685.576 307.967C683.539 312.299 688.64 316.403 693.64 319.947C698.631 323.491 703.467 326.391 700.67 329.308C703.936 332.234 707.403 335.031 710.944 337.737L710.145 338.167C710.952 338.885 711.722 339.52 712.447 340.081C713.108 340.606 713.805 341.084 714.539 341.517C715.686 342.235 716.897 342.807 718.173 343.249C719.183 343.572 720.202 343.776 721.249 343.879C722.168 343.972 723.077 344.001 723.996 343.956C725.398 345.465 723.764 345.361 723.396 345.627C724.653 346.612 725.735 347.532 726.799 348.268C727.855 349.005 728.809 349.649 729.699 350.211C732.736 352.217 736.068 353.306 739.696 353.486C739.935 353.505 740.174 353.524 740.422 353.543C740.67 353.543 740.927 353.553 741.193 353.562C741.707 353.563 742.258 353.564 742.828 353.565C743.976 353.548 745.216 353.541 746.612 353.469C746.693 354.406 746.775 355.352 746.874 356.299C747.683 356.135 749.106 356.633 751.024 357.462C751.988 357.831 753.08 358.274 754.282 358.771C754.888 359.011 755.512 359.269 756.164 359.527C756.825 359.749 757.504 359.98 758.211 360.219C761.232 361.262 764.326 361.992 767.494 362.392C769.147 362.551 770.8 362.627 772.453 362.602C774.088 362.512 775.705 362.285 777.304 361.929C777.175 362.232 776.917 362.737 775.906 363.094C776.797 362.902 777.706 362.821 778.625 362.684C779.544 362.566 780.481 362.494 781.427 362.45C783.328 362.407 785.266 362.355 787.222 362.413C791.135 362.511 795.121 362.7 798.822 362.596C799.282 362.587 799.741 362.57 800.191 362.561C800.65 362.534 801.091 362.498 801.523 362.462C802.396 362.381 803.25 362.29 804.068 362.172C805.593 361.982 807.063 361.598 808.496 361.04C809.728 360.583 810.813 359.895 811.751 358.96C812.634 358.025 813.205 356.923 813.455 355.665L815.459 354.502L817.408 353.283L819.348 352.065C820.001 351.662 820.635 351.249 821.269 350.818C820.231 351.12 819.165 351.32 818.091 351.42C817.576 351.502 817.071 351.455 816.575 351.271C816.016 350.967 816.265 350.324 816.688 349.59C817.545 348.122 819.1 346.324 816.693 346.238C817.217 346.009 817.759 345.826 818.32 345.698C818.899 345.552 819.487 345.443 820.084 345.37C821.177 345.234 822.261 345.236 823.354 345.384C824.253 345.533 824.878 345.772 824.978 346.149C825.069 346.526 824.637 347.03 823.396 347.58L822.432 347.404C822.375 348.744 823.201 349.242 824.514 349.271C825.827 349.31 827.573 348.798 829.374 348.259C829.825 348.113 830.275 347.976 830.725 347.839C831.166 347.692 831.607 347.546 832.03 347.4C832.885 347.116 833.693 346.879 834.41 346.724C835.843 346.423 836.89 346.443 837.155 347.251C842.302 344.972 847.376 342.675 852.403 340.359C857.412 338.024 862.348 335.634 867.211 333.18C872.046 330.689 876.798 328.143 881.395 325.441C885.982 322.72 890.459 319.916 894.698 316.883L890.485 315.122L893.473 313.106L896.433 311.062C898.491 310.661 900.308 311.977 896.051 314.928C897.787 315.014 899.286 313.335 900.235 311.573C901.175 309.802 901.637 307.929 901.435 307.552C910.297 302.817 901.086 313.503 903.56 311.744L906.687 309.011L905.667 309.212C907.38 305.926 906.593 304.4 911.539 300.881C915.06 299.178 914.551 301.593 915.847 300.796C916.003 301.026 916.49 300.815 917.75 299.494L925.005 294.399L920.33 294.088C922.54 290.51 927.07 289.203 921.716 288.883C925.729 289.22 932.597 284.647 939.015 280.064C945.433 275.463 951.465 270.88 953.44 270.58C956.708 265.754 961.268 262.886 967.087 259.791C966.214 259.918 965.131 259.383 964.903 258.483C964.675 257.573 965.319 256.325 967.93 255.08C968.779 258.691 971.415 258.052 974.659 256.909C977.885 255.738 981.782 254.091 984.903 255.455C982.369 254.799 985.797 252.848 989.006 251.08C990.605 250.164 992.149 249.349 992.803 248.533C993.456 247.744 993.237 247.009 991.29 246.473C993.578 245.861 993.899 246.486 994.137 247.267C994.374 248.057 994.538 249.013 996.476 249.227C1001.08 246.065 1006.94 244.504 1013.04 243.264C1019.18 242.07 1025.58 241.382 1032.05 240.041C1032.21 239.206 1029.86 238.201 1032.65 236.69L1036.28 238.312L1039.8 239.98C1041.09 239.66 1041.69 238.568 1042.59 237.826C1043.06 237.404 1043.62 237.184 1044.25 237.158C1044.95 237.122 1045.83 237.399 1046.99 238.025C1046.36 237.418 1045.39 236.461 1047.19 236.271L1048.42 236.448L1049.65 236.661C1050.46 236.8 1051.28 236.92 1052.1 237.041C1053.73 237.356 1055.39 237.551 1057.02 237.866C1060.31 238.394 1063.59 239.052 1066.91 239.745C1068.55 240.134 1070.21 240.467 1071.86 240.919C1073.51 241.317 1075.15 241.806 1076.8 242.277C1080.1 243.265 1083.35 244.409 1086.55 245.727C1088.16 246.354 1089.73 247.1 1091.32 247.819L1093.65 248.98L1094.82 249.57L1095.96 250.196C1099.03 251.872 1101.99 253.714 1104.85 255.72C1106.26 256.751 1107.68 257.754 1109.03 258.868C1110.41 259.935 1111.73 261.076 1113.04 262.217C1115.62 264.554 1118.15 266.946 1120.49 269.494C1118.05 266.643 1119.94 268.299 1122.04 270.286C1120.75 268.915 1122.47 269.956 1122.42 269.506C1124.94 272.504 1127.4 275.557 1129.77 278.665C1130.66 279.346 1132.64 281.829 1134.39 284.339C1135.27 285.58 1136.08 286.849 1136.77 287.842C1137.43 288.844 1137.9 289.607 1138.09 289.855L1137.12 288.247C1136.78 287.713 1136.42 287.199 1136.07 286.674C1137.56 288.697 1136.69 287.19 1135.71 285.112C1135.22 284.065 1134.62 282.934 1134.25 282.043C1133.88 281.151 1133.69 280.535 1133.91 280.609C1133.48 280.048 1133.05 279.423 1132.6 278.743C1132.16 278.053 1131.7 277.327 1131.21 276.564C1130.72 275.801 1130.23 274.983 1129.73 274.128C1129.19 273.291 1128.65 272.418 1128.09 271.526C1127.55 270.607 1126.92 269.724 1126.3 268.795C1125.99 268.336 1125.67 267.876 1125.35 267.407C1125 266.956 1124.65 266.506 1124.29 266.055C1122.87 264.189 1121.21 262.551 1119.33 261.152C1118.11 259.424 1120.87 262.11 1120.34 261.062C1119.17 260.279 1118.07 259.405 1117.05 258.43C1115.79 257.308 1114.37 255.817 1112.48 253.895L1113.05 254.162C1107.44 249.12 1103.18 245.743 1098.64 242.292C1096.34 240.58 1093.99 238.831 1091.23 237C1090.53 236.548 1089.81 236.079 1089.08 235.6C1088.34 235.131 1087.56 234.661 1086.75 234.173C1085.94 233.676 1085.1 233.169 1084.21 232.69C1083.32 232.202 1082.4 231.668 1081.42 231.161C1081.64 231.796 1081.85 232.448 1082.05 233.082C1080.88 232.483 1079.75 231.82 1078.67 231.075C1078.3 230.808 1077.99 230.559 1077.67 230.311C1077.36 230.071 1077.04 229.832 1076.66 229.584C1075.47 229.738 1075.48 230.078 1076.11 230.492C1076.52 230.75 1076.96 230.98 1077.41 231.174C1077.93 231.432 1078.54 231.708 1079.15 231.985C1079.75 232.261 1080.36 232.547 1080.89 232.814C1081.35 233.044 1081.78 233.311 1082.18 233.615C1082.81 234.112 1082.85 234.479 1081.76 234.643C1081.2 233.917 1080.54 233.3 1079.76 232.821C1078.73 232.113 1077.66 231.496 1076.53 230.961C1073.75 229.653 1070.89 228.537 1067.96 227.623C1067.19 227.383 1066.43 227.134 1065.69 226.885C1064.93 226.663 1064.18 226.442 1063.46 226.22C1062.02 225.75 1060.63 225.343 1059.4 224.901C1058.79 224.679 1058.21 224.44 1057.67 224.209C1057.17 224.006 1056.68 223.767 1056.21 223.509C1055.44 223.113 1054.8 222.552 1054.33 221.825C1051.41 221.279 1051.77 221.932 1052.14 222.538C1052.51 223.163 1052.87 223.77 1049.99 223.307C1049.51 222.819 1049.03 222.359 1048.54 221.89C1048.01 222.348 1047.48 222.816 1046.96 223.284C1045.42 223.042 1043.99 222.526 1042.66 221.725C1041.69 221.08 1041.17 220.354 1041.09 219.812C1042.05 220.025 1043.81 219.752 1044.84 219.763C1043.41 219.237 1041.93 218.922 1040.42 218.81C1038.78 218.697 1037.16 218.667 1035.52 218.729C1033.94 218.828 1032.46 218.991 1031.28 219.09C1030.68 219.135 1030.16 219.162 1029.72 219.17C1029.39 219.197 1029.06 219.178 1028.73 219.114C1029.7 219.207 1030.67 219.374 1031.64 219.513L1034.53 219.949C1026.44 220.414 1017.45 221.043 1008.69 222.702C1007.58 222.875 1006.51 223.139 1005.42 223.376C1004.34 223.623 1003.27 223.878 1002.2 224.152C1001.15 224.454 1000.1 224.774 999.075 225.112C998.046 225.45 997.026 225.798 996.042 226.209C994.094 226.987 992.21 227.884 990.371 228.892C988.615 229.854 986.924 230.926 985.296 232.099L986.811 232.744C985.588 233.587 984.549 234.247 983.621 234.778C982.692 235.31 981.911 235.749 981.185 236.079C979.962 236.628 978.694 237.058 977.39 237.359C976.011 237.697 974.651 238.108 973.319 238.602C972.381 238.977 971.471 239.398 970.589 239.874C969.385 240.497 968.208 241.175 967.077 241.926L967.344 241.458C966.442 242.66 965.403 243.733 964.217 244.668C962.938 245.722 961.559 246.63 960.089 247.399C961.101 246.023 959.475 246.158 957.95 246.257C956.435 246.355 955.002 246.381 956.391 244.647C951.664 248.828 950.689 250.076 950.209 251.195C949.748 252.334 949.857 253.418 947.701 257.446L945.076 256.8C943.804 259.819 944.105 260.683 939.388 264.552C942.554 260.332 934.465 264.296 937.834 259.268C935.013 260.054 932.44 261.336 930.132 263.133C928.394 264.544 926.811 266.103 925.358 267.81C922.708 270.781 920.656 273.038 916.414 272.269C915.71 276.208 918.357 275.156 920.968 273.497C923.57 271.839 926.145 269.583 925.16 271.024C926.795 270.925 926.425 272.468 925.201 274.266C923.986 276.064 921.934 278.128 920.179 279.108C916.878 281.427 910.445 277.67 902.408 283.93C903.226 283.335 903.034 282.958 903.852 282.371C899.984 283.569 899.067 288.389 893.996 289.401C893.925 293.607 889.086 292.884 891.027 296.698L897.834 290.316C896.067 292.343 894.951 295.088 893.221 297.739C891.49 300.382 889.153 302.932 884.963 304.487C885.111 303.651 885.406 302.88 885.848 302.155C886.327 301.228 886.861 300.329 887.45 299.467C884.712 299.958 884.046 302.97 881.198 303.452C880.274 301.504 882.398 299.744 885.028 297.653C887.649 295.6 890.904 293.153 892.176 290.179C890.55 290.296 888.894 292.498 887.578 294.011C886.253 295.534 885.315 296.295 885.053 293.658C885.194 297.158 883.126 298.486 880.662 299.796C879.338 300.455 878.088 301.225 876.902 302.105C875.532 303.196 874.519 304.563 873.865 306.187L872.812 303.862C872.159 304.77 871.026 307.001 869.362 308.008C869.75 306.466 870.101 304.896 870.452 303.344C869.025 306.015 866.498 306.902 863.952 307.651C861.38 308.354 858.798 308.911 857.013 310.864C859.284 309.481 860.626 308.822 861.462 308.667C862.298 308.503 862.628 308.816 862.82 309.284C863.214 310.222 863.064 311.783 865.499 311.337C864.524 312.391 863.466 313.326 862.308 314.161C861.508 314.729 860.634 315.141 859.697 315.424C858.117 315.863 856.804 315.622 855.408 315.316C854.012 315.011 852.543 314.678 850.688 314.933C849.594 315.078 848.538 315.37 847.527 315.791C846.883 316.057 846.249 316.359 845.643 316.698C844.962 317.055 844.245 317.458 843.473 317.953C845.045 316.77 850.714 315.723 848.57 318.254C847.89 318.483 847.155 318.711 846.392 318.912C845.63 319.113 844.849 319.287 844.077 319.423C842.552 319.687 841.101 319.814 840.045 319.592C835.88 321.964 836.477 322.397 837.771 322.61C839.066 322.841 841.059 322.854 839.55 324.477C837.384 323.858 836.455 324.61 835.617 325.913C835.203 326.565 834.807 327.345 834.291 328.134C833.748 328.996 833.067 329.73 832.258 330.344L831.196 328.01C828.513 328.768 827.125 329.445 826.398 330.17C825.81 330.775 825.533 331.5 825.578 332.345C825.511 333.778 825.518 335.11 820.466 335.947C821.386 334.341 822.28 332.726 823.155 331.139L820.912 332.476C820.158 332.925 819.413 333.374 818.65 333.786L818.664 330.7C817.726 331.516 816.742 332.258 815.694 332.937C815.28 333.202 814.848 333.44 814.398 333.66C813.984 333.843 813.562 334.008 813.12 334.154C812.229 334.428 811.32 334.647 810.392 334.793C809.399 334.966 808.27 335.047 806.928 335.21C807.763 335.919 807.908 337.085 807.245 338.251C806.84 338.93 806.297 339.489 805.626 339.92C804.725 340.488 803.76 340.891 802.731 341.137C800.941 340.785 801.272 340.079 801.209 339.711C801.145 339.353 800.704 339.288 797.415 340.128C798.022 339.192 798.621 338.146 799.485 337.559C800.349 336.991 801.461 336.809 803.159 337.62C803.261 336.729 804.236 335.711 804.32 334.839C803.356 334.617 802.374 334.579 801.391 334.706C800.895 334.76 800.389 334.86 799.893 334.961C799.397 335.052 798.901 335.17 798.414 335.298C797.449 335.545 796.521 335.856 795.694 336.121C794.987 336.34 794.27 336.523 793.544 336.669C794.426 336.569 795.298 336.625 796.161 336.838C794.709 337.699 793.229 338.505 791.721 339.357C790.223 340.144 788.697 340.904 787.144 341.683C786.336 341.259 786.227 340.836 786.448 340.405C786.816 339.9 787.257 339.46 787.763 339.094C786.863 339.386 785.99 339.752 785.153 340.192C784.666 340.421 784.179 340.622 783.673 340.796C783.067 341.015 782.442 341.152 781.808 341.215C782.436 339.131 782.191 336.964 785.941 335.72C784.535 336.186 783.11 336.726 781.667 337.156L779.499 337.795C778.773 337.996 778.038 338.243 777.312 338.398C777.019 337.938 775.908 337.294 775.037 336.668C774.165 336.042 773.532 335.444 774.093 335.068C772.826 334.727 771.55 334.669 770.254 334.906C769.556 335.025 768.83 335.106 768.086 335.243C767.324 335.379 766.552 335.525 765.762 335.662C764.154 335.935 762.537 336.061 760.912 336.04C760.113 335.984 759.323 335.854 758.543 335.669C758.157 335.568 757.781 335.448 757.404 335.309C757.028 335.18 756.67 335.005 756.33 334.793C755.907 335.096 755.182 335.278 753.804 335.184C752.446 334.64 751.133 333.977 749.894 333.204C748.628 332.522 747.444 331.657 746.178 330.948C743.645 329.52 741.011 328.221 737.21 327.692C736.945 326.801 736.698 325.918 736.46 325.046C736.223 324.182 735.995 323.318 735.794 322.418C733.307 321.257 733.736 322.966 733.807 324.509C733.842 325.29 733.777 326.015 733.161 326.29C732.693 326.454 732.224 326.454 731.756 326.315C730.847 326.093 729.984 325.752 729.167 325.301C726.01 323.771 725.993 322.688 726.583 321.788C727.181 320.889 728.367 320.101 727.763 318.961C725.862 318.701 723.153 318.311 720.528 317.113C717.921 315.897 715.408 313.872 714.127 310.463C716.164 311.504 717.025 313.03 718.677 314.208ZM662.195 257.379C663.003 257.729 664.288 258.144 665.38 258.725C666.472 259.305 667.325 260.05 667.25 261.024C666.598 261.225 665.936 261.27 665.266 261.168C664.779 261.075 664.376 260.845 664.045 260.477C663.394 259.778 662.983 258.638 662.195 257.379ZM538.777 241.412C539.669 240.283 541.571 240.167 543.802 240.537C542.203 241.242 540.522 241.534 538.777 241.412ZM230.193 329.133C230.266 329.142 230.331 329.142 230.404 329.133C232.531 331.975 231.798 330.926 230.193 329.133ZM225.204 324.101C224.424 323.972 224.258 324.293 224.285 324.761C225.057 324.524 226.359 325.417 227.689 326.622C227.691 325.786 227.233 324.876 225.204 324.101ZM915.904 299.565L914.388 299.884C916.449 297.38 916.154 298.445 915.904 299.565Z" fill="#8C7837" fill-opacity="0.7"/>
</g>
<path d="M551.756 234.423C552.224 234.709 552.545 235.113 552.737 235.628C553.262 235.069 553.18 234.572 551.756 234.423Z" fill="#8C7837" fill-opacity="0.7"/>
<path d="M756.138 334.71C756.202 334.747 756.267 334.756 756.331 334.793C756.459 334.692 756.57 334.555 756.643 334.408L756.138 334.71Z" fill="#8C7837" fill-opacity="0.7"/>
<path d="M330.655 341.428C331.665 341.476 332.62 341.762 333.492 342.278C333.456 341.653 332.74 341.248 330.655 341.428Z" fill="#8C7837" fill-opacity="0.7"/>
<path d="M192.1 307.702L196.221 309.343C194.331 308.385 193.965 307.512 193.24 306.62C193.019 307.189 193.302 308.356 192.1 307.702Z" fill="#8C7837" fill-opacity="0.7"/>
<path d="M164.272 276.349C163.528 276.403 162.941 275.851 162.206 275.905L161.938 277.108C164.591 278.113 166.823 277.951 164.272 276.349Z" fill="#8C7837" fill-opacity="0.7"/>
<path d="M192.776 298.262C193.523 296.205 190.676 295.466 187.73 294.304C187.904 294.369 188.06 294.461 188.216 294.571C185.981 296.772 189.369 297.512 192.776 298.262Z" fill="#8C7837" fill-opacity="0.7"/>
<path d="M187.042 294.028C186.133 293.687 185.261 293.254 184.435 292.738C183.552 293.637 185.362 293.502 187.042 294.028Z" fill="#8C7837" fill-opacity="0.7"/>
<path d="M217.137 320.158C216.229 318.87 214.81 321.918 214.61 320.723C213.158 321.401 215.664 322.066 217.584 322.216C219.503 322.357 220.882 321.899 217.137 320.158Z" fill="#8C7837" fill-opacity="0.7"/>
<path d="M193.981 290.805L193.692 293.689L196.32 292.683L193.981 290.805Z" fill="#8C7837" fill-opacity="0.7"/>
<path d="M214.679 305.578L210.781 302.164C210.606 302.577 209.917 302.457 209.127 302.208C211.752 303.957 214.338 306.312 214.679 305.578Z" fill="#8C7837" fill-opacity="0.7"/>
<path d="M209.128 302.208C207.76 301.297 206.402 300.532 205.392 300.42C206.585 301.129 207.833 301.728 209.128 302.208Z" fill="#8C7837" fill-opacity="0.7"/>
<path d="M200.507 293.58L201.534 294.83L204.571 296.837L200.507 293.58Z" fill="#8C7837" fill-opacity="0.7"/>
<path d="M259.377 338.141C260.231 338.574 261.094 338.989 261.966 339.385C262.838 339.782 263.691 340.206 264.572 340.583C265.06 340.345 265.042 339.904 264.666 339.435C264.088 338.782 263.382 338.304 262.574 337.999C261.077 337.823 259.149 336.919 259.377 338.141Z" fill="#8C7837" fill-opacity="0.7"/>
<path d="M249.831 322.347C250.711 323.69 250.434 324.231 250.589 325.444L252.696 322.894L249.831 322.347Z" fill="#8C7837" fill-opacity="0.7"/>
<path d="M263.365 331.103C264.339 330.701 271.344 333.164 265.535 329.646C265.057 329.875 263.588 329.386 262.697 329.274C261.806 329.135 261.494 329.401 263.365 331.103Z" fill="#8C7837" fill-opacity="0.7"/>
<path d="M340.536 348.745C340.077 348.854 339.626 348.991 339.167 349.092L340.491 354.348C340.521 352.483 340.533 350.609 340.536 348.745Z" fill="#8C7837" fill-opacity="0.7"/>
<path d="M401.648 308.517C395.463 310.685 402.046 312.21 396.202 313.735C395.529 315.608 400.99 312.484 400.206 314.219C402.884 311.045 405.016 310.653 401.648 308.517Z" fill="#8C7837" fill-opacity="0.7"/>
<path d="M400.206 314.219C399.728 314.76 399.295 315.329 398.89 315.925C399.424 315.43 399.856 314.852 400.206 314.219Z" fill="#8C7837" fill-opacity="0.7"/>
<path d="M1134.38 285.055L1136.81 288.549L1135.31 286.251L1134.38 285.055Z" fill="#8C7837" fill-opacity="0.7"/>
<path d="M1139.13 291.749C1139.27 292.061 1139.42 292.355 1139.57 292.659C1140.04 293.385 1140.48 294.121 1140.91 294.865C1140.43 294.019 1139.48 292.401 1139.13 291.749Z" fill="#8C7837" fill-opacity="0.7"/>
<path d="M656.136 243.702L655.345 244.151C655.435 245.336 656.325 246.054 658.068 247.536C657.445 246.258 656.795 244.989 656.136 243.702Z" fill="#8C7837" fill-opacity="0.7"/>
<path d="M698.399 288.947L697.794 288.165L696.677 291.617L698.399 288.947Z" fill="#8C7837" fill-opacity="0.7"/>
<path d="M733.028 317.38C732.698 317.104 732.34 316.865 731.973 316.653C731.587 316.414 731.193 316.183 730.789 315.962C729.981 315.557 729.229 315.06 728.55 314.471C730.165 315.392 730.769 316.964 731.254 317.901C731.74 318.802 732.061 319.078 733.028 317.38Z" fill="#8C7837" fill-opacity="0.7"/>
</svg>
